<?xml version="1.0" encoding="UTF-8"?>
<svg id="Calque_2" data-name="Calque 2" xmlns="http://www.w3.org/2000/svg" viewBox="0 0 609.13 345.29">
  <defs>
    <style>
      .cls-1 {
        fill: #a06ead;
      }

      .cls-2 {
        fill: #42ad4c;
      }

      .cls-3 {
        fill: #422778;
      }

      .cls-4 {
        font-family: ArchivoCondensed-Black, 'Archivo Condensed';
        font-size: 110px;
        font-weight: 800;
      }

      .cls-5 {
        fill: #f9b400;
      }

      .cls-6, .cls-7, .cls-8 {
        fill: #6355a0;
      }

      .cls-6, .cls-9 {
        letter-spacing: -.03em;
      }

      .cls-7 {
        letter-spacing: -.03em;
      }

      .cls-10 {
        fill: #ffd835;
      }

      .cls-9, .cls-11 {
        fill: #1d1d1b;
      }

      .cls-12 {
        stroke-width: 5px;
      }

      .cls-12, .cls-13 {
        fill: none;
        stroke: #6355a0;
        stroke-miterlimit: 10;
      }

      .cls-13 {
        stroke-width: 7px;
      }

      .cls-14 {
        fill: #00a4df;
      }

      .cls-11 {
        letter-spacing: -.06em;
      }
    </style>
  </defs>
  <g id="Calque_12" data-name="Calque 12">
    <text/>
    <g id="_9T6nG6.tif" data-name="9T6nG6.tif">
      <g>
        <path class="cls-8" d="M291.62,57.1c-3.33,1.59-3.77,1.47-5.13-1.27-1.05-2.12-1.94-4.34-3.2-6.33-.46-.72-1.92-1.43-2.69-1.24-11.65,2.91-23.27,6-34.9,8.99-2.17.56-2.41,1.47-1.55,3.5,9.31,22.04,18.54,44.12,27.72,66.22.75,1.81,1.58,2.07,3.29,1.33,12.11-5.25,24.25-10.44,36.4-15.6,1.63-.69,2.1-1.57,1.17-3.12-.33-.54-.56-1.14-.84-1.72-1.51-3.12-1.46-3.26,2.19-5.49,2.44,5.19,5.04,10.26,7.2,15.52,1.01,2.45-.31,4.67-2.75,5.81-12.87,6.01-25.74,12.01-38.62,17.98-4.68,2.17-7.46,1.04-9.47-3.85-7.99-19.44-15.95-38.89-23.94-58.33-2.87-6.98-5.77-13.95-8.66-20.93-1.81-4.37-.83-6.5,3.76-7.65,12.01-3.01,24.03-5.97,36.07-8.9,4.39-1.07,6.43-.08,8.42,3.89,1.87,3.72,3.7,7.45,5.54,11.18ZM303.34,123.82c.06-2.09-1.32-3.08-3.02-2.38-3.1,1.27-6.19,2.62-9.13,4.22-.73.4-.89,1.85-1.31,2.82,1.01.3,2.19,1.09,2.98.8,3.07-1.1,6.04-2.48,8.98-3.89.71-.34,1.17-1.21,1.49-1.56ZM265.34,49.28c-.11-.43-.22-.85-.33-1.28-2.06.54-4.13,1.09-6.19,1.63.11.41.22.83.32,1.24,2.07-.53,4.13-1.06,6.2-1.59Z"/>
        <path class="cls-3" d="M235.15,59.46c.59,1.31,1.05,2.26,1.44,3.23,10.27,24.99,20.53,49.98,30.79,74.97.24.59.47,1.18.73,1.77,2.48,5.69,7.03,7.49,12.71,4.86,11.64-5.4,23.25-10.88,34.87-16.32.9-.42,1.81-.8,3-1.32-.14,2.54-1.1,4.24-3.13,5.18-12.21,5.68-24.4,11.43-36.69,16.94-5.32,2.38-10.64-.17-13.04-5.93-4.52-10.83-8.95-21.7-13.41-32.55-5.99-14.55-11.95-29.11-17.99-43.64-.98-2.36-1.26-4.52.73-7.17Z"/>
        <path class="cls-1" d="M303.34,123.82c-.33.36-.78,1.22-1.49,1.56-2.94,1.41-5.91,2.8-8.98,3.89-.8.28-1.98-.51-2.98-.8.42-.97.58-2.42,1.31-2.82,2.94-1.59,6.03-2.95,9.13-4.22,1.7-.7,3.08.29,3.02,2.38Z"/>
        <path class="cls-1" d="M265.34,49.28c-2.07.53-4.13,1.06-6.2,1.59-.11-.41-.22-.83-.32-1.24,2.06-.54,4.13-1.09,6.19-1.63.11.43.22.85.33,1.28Z"/>
      </g>
    </g>
    <path class="cls-1" d="M286.1,123.62l18.08-7.86c.85-.37,1.56-1,2.02-1.81,2.43-4.26,8.86-15.87,22.01-21.46.41-.17.84-.29,1.28-.32,1.27-.08,2.11.55,1.64,2.66-.36,1.61-.57,2.67-.67,3.23-.05.28-.13.56-.24.82-.38.91-1.04,3.13,2.8.43,4.44-3.12,20.61-11.96,22.45-12.96.16-.09.32-.18.47-.29.71-.52,2.28-1.94-.3-2.72-3.04-.92-22.32-6.57-24.33-7.16-.1-.03-.2-.06-.3-.1-.59-.22-3-.96-2.51,1.61l.52,2.7c.03.15.07.29.11.44l.47,1.53c.3.97-.35,1.99-1.33,2.08-2.09.2-8.24.13-16.16,3.9-4.17,1.99-9.37,5.6-10.64,6.56-6.41,4.82-13.61,11.58-20.68,22.46-2.32,3.57,1.41,7.98,5.32,6.28Z"/>
    <g>
      <path class="cls-5" d="M317.4,93.96c-.06.11-.12.23-.18.34-1.37-.9-2.75-1.81-4.12-2.71-3.58-2.36-7.16-4.73-10.74-7.1-1.15-.76-2.3-1.53-3.45-2.3-.62-1.63-1.25-3.26-1.87-4.89.22.13.45.24.66.38,5.6,3.55,11.2,7.1,16.81,10.65.54.62.78,1.4,1.18,2.1.53.93.92,1.93,1.51,2.83l.21.68Z"/>
      <path class="cls-1" d="M275.77,76.89c-.59-.71-1.22-1.4-1.77-2.15-2.2-3.02-3.17-6.32-2.11-10.01.87-3.06,2.78-5.3,5.64-6.74,4.8-2.41,10.57-.66,13.44,3.44,1.24,1.77,1.85,3.75,2,5.88.1,1.45-.02,2.9-.32,4.33-.23,1.21-.57,2.4-.98,3.55-.35.98-.76,1.95-1.14,2.92-.68,1.25-1.32,2.52-2.04,3.74-.41.69-.71,1.48-1.45,1.92-.27-.04-.53-.08-.78-.19-1.06-.44-2.08-.98-3.1-1.49-1.87-.99-3.65-2.12-5.3-3.45-.71-.57-1.39-1.17-2.08-1.75ZM285.97,66.45c-.65-2.09-2.84-3.25-4.93-2.62-2.09.64-3.27,2.82-2.64,4.92.63,2.11,2.86,3.29,4.96,2.63,2.09-.66,3.25-2.85,2.61-4.93Z"/>
      <path class="cls-2" d="M298.92,82.2c1.15.77,2.3,1.54,3.45,2.3,3.58,2.37,7.16,4.73,10.74,7.1,1.37.91,2.75,1.81,4.12,2.71-.3.37-.69.36-1.11.3-4.12-.53-8.24-1.05-12.35-1.6-.52-.07-.89.04-1.28.39-1.94,1.72-3.91,3.4-5.87,5.1-2.05-1.14-4.11-2.28-6.16-3.42-3.28-2.83-6.56-5.66-9.92-8.56,1.25-.22,2.4-.41,3.54-.63,1.13-.22,2.28-.33,3.39-.65.25-.09.41-.29.6-.45,1.72-1.45,3.43-2.9,5.14-4.37.24-.2.43-.24.73-.12,1.65.65,3.32,1.27,4.98,1.9Z"/>
      <path class="cls-14" d="M292.55,101.99c-1.39-.03-2.76-.3-4.14-.47-3.05-.37-6.09-.77-9.13-1.18-.4-.05-.66.05-.95.3-3.18,2.77-6.36,5.53-9.55,8.3-.3.26-.6.54-1.04.32-.41-.2-.45-.59-.49-.99-.29-2.55-.59-5.09-.88-7.63-.12-1.09-.24-2.18-.35-3.26.89-.88,1.79-1.75,2.68-2.63,2.41-2.38,4.83-4.75,7.24-7.13.08.06.17.11.24.18,3.29,2.74,6.58,5.48,9.87,8.22,2.07,1.72,4.14,3.42,6.22,5.14.09.28.18.56.27.84Z"/>
      <path class="cls-2" d="M275.77,76.89c.69.58,1.38,1.18,2.08,1.75,1.65,1.33,3.43,2.46,5.3,3.45-.06.02-.12.06-.18.07-2.66.42-5.32.83-7.98,1.24-1.87,1.84-3.73,3.68-5.6,5.51-1.3,1.28-2.61,2.55-3.92,3.83-.26-2.22-.51-4.44-.77-6.66-.05-.41.06-.72.34-1.01,2.65-2.72,5.29-5.45,7.93-8.18.3-.31.64-.41,1.06-.32.58.12,1.17.21,1.75.32Z"/>
      <path class="cls-14" d="M314.51,88.34c-5.6-3.55-11.2-7.1-16.81-10.65-.21-.14-.44-.25-.66-.38,0-.02,0-.05-.02-.06.05-.05.09-.1.15-.14,1.81-1.02,3.63-2.03,5.44-3.06.89-.51,1.83-.93,2.65-1.56.28.06.56.12.85.17.36.07.6.26.77.59,1.11,2.18,2.23,4.36,3.35,6.53,1.35,2.63,2.7,5.26,4.05,7.89.11.21.21.43.23.67Z"/>
      <path class="cls-10" d="M265.47,92.75c1.31-1.28,2.61-2.55,3.92-3.83,1.87-1.84,3.73-3.67,5.6-5.51.09.31.19.61.26.93.24,1.1.47,2.19.7,3.29-2.41,2.38-4.83,4.75-7.24,7.13-.89.88-1.79,1.76-2.68,2.63-.22-1.05-.26-2.12-.41-3.19-.07-.48-.1-.97-.14-1.45Z"/>
      <path class="cls-5" d="M305.27,72.49c-.82.62-1.76,1.05-2.65,1.56-1.8,1.04-3.63,2.04-5.44,3.06-.06.03-.1.09-.15.14-.23-.61-.42-1.25-.71-1.83-.26-.52-.32-1.13-.68-1.61.12-.18.31-.25.48-.35,1.23-.72,2.46-1.44,3.69-2.15,1.82.39,3.64.79,5.46,1.18Z"/>
      <path class="cls-2" d="M299.81,71.31c-1.23.72-2.46,1.44-3.69,2.15-.17.1-.37.17-.48.35-.19.14-.39.27-.57.42-1.52,1.29-3.03,2.59-4.55,3.88.38-.97.79-1.94,1.14-2.92.42-1.16.76-2.34.98-3.55.5-.22.79-.67,1.16-1.03.35-.34.71-.45,1.19-.34,1.6.36,3.2.69,4.8,1.04Z"/>
      <path class="cls-10" d="M292.55,101.99c-.09-.28-.18-.56-.27-.84-.61-2.02-1.21-4.05-1.82-6.07,2.05,1.14,4.11,2.28,6.16,3.42-1.34,1.19-2.65,2.41-4.07,3.49Z"/>
      <path class="cls-10" d="M290.53,78.11c1.51-1.3,3.03-2.59,4.55-3.88.18-.15.38-.28.57-.42.36.48.42,1.08.68,1.61.29.58.48,1.22.71,1.83.02.02.02.04.02.06.62,1.63,1.25,3.26,1.87,4.89-1.66-.63-3.32-1.25-4.98-1.9-.3-.12-.49-.08-.73.12-1.71,1.46-3.42,2.92-5.14,4.37-.19.16-.36.36-.6.45-.14-.49-.29-.98-.43-1.47.74-.45,1.04-1.24,1.45-1.92.73-1.22,1.36-2.49,2.04-3.74Z"/>
      <path class="cls-5" d="M287.04,83.77c.14.49.29.98.43,1.47-1.11.32-2.26.43-3.39.65-1.14.22-2.29.41-3.54.63,3.36,2.9,6.64,5.73,9.92,8.56.61,2.02,1.21,4.05,1.82,6.07-2.07-1.71-4.15-3.42-6.22-5.14-3.29-2.74-6.58-5.48-9.87-8.22-.08-.06-.16-.12-.24-.18-.23-1.1-.46-2.2-.7-3.29-.07-.31-.17-.62-.26-.93,2.66-.41,5.32-.83,7.98-1.24.06,0,.12-.05.18-.07,1.03.51,2.04,1.05,3.1,1.49.26.11.52.15.78.19Z"/>
    </g>
    <text class="cls-4" transform="translate(66.09 301.62)"><tspan class="cls-6" x="0" y="0">E</tspan><tspan class="cls-9" x="57.31" y="0">XP</tspan><tspan class="cls-11" x="178.42" y="0">L</tspan><tspan class="cls-9" x="228.14" y="0">ORE</tspan><tspan class="cls-7" x="416.34" y="0">E</tspan></text>
    <circle class="cls-12" cx="284.78" cy="93.59" r="81.43"/>
    <circle class="cls-13" cx="285" cy="94.12" r="90.62"/>
  </g>
</svg>