<?xml version="1.0" encoding="UTF-8"?>
<svg id="Calque_2" data-name="Calque 2" xmlns="http://www.w3.org/2000/svg" viewBox="0 0 333 187.85">
  <defs>
    <style>
      .cls-1 {
        fill: #a06ead;
      }

      .cls-2 {
        fill: #42ad4c;
      }

      .cls-3 {
        stroke-width: 2px;
      }

      .cls-3, .cls-4 {
        fill: none;
        stroke: #6355a0;
        stroke-miterlimit: 10;
      }

      .cls-5 {
        fill: #422778;
      }

      .cls-6 {
        fill: #f9b400;
      }

      .cls-7 {
        font-family: ArchivoCondensed-Black, 'Archivo Condensed';
        font-size: 60.13px;
        font-weight: 800;
      }

      .cls-8 {
        letter-spacing: -.03em;
      }

      .cls-8, .cls-9 {
        fill: #fff;
      }

      .cls-10 {
        fill: #ffd835;
      }

      .cls-11 {
        fill: #6355a0;
      }

      .cls-12 {
        fill: #00a4df;
      }
    </style>
  </defs>
  <g id="Calque_12" data-name="Calque 12">
    <text/>
    <g id="_9T6nG6.tif" data-name="9T6nG6.tif">
      <g>
        <path class="cls-11" d="M159.42,30.3c-1.82.87-2.06.8-2.8-.69-.58-1.16-1.06-2.37-1.75-3.46-.25-.39-1.05-.78-1.47-.68-6.37,1.59-12.72,3.28-19.08,4.91-1.19.3-1.32.8-.85,1.91,5.09,12.05,10.13,24.12,15.15,36.2.41.99.86,1.13,1.8.72,6.62-2.87,13.26-5.71,19.9-8.53.89-.38,1.15-.86.64-1.71-.18-.3-.31-.62-.46-.94-.82-1.71-.8-1.78,1.2-3,1.33,2.84,2.75,5.61,3.94,8.48.55,1.34-.17,2.56-1.5,3.18-7.03,3.29-14.07,6.57-21.11,9.83-2.56,1.18-4.08.57-5.18-2.1-4.37-10.63-8.72-21.26-13.09-31.89-1.57-3.82-3.16-7.63-4.74-11.44-.99-2.39-.45-3.55,2.05-4.18,6.57-1.65,13.14-3.26,19.72-4.87,2.4-.58,3.51-.04,4.6,2.13,1.02,2.03,2.02,4.07,3.03,6.11ZM165.83,66.77c.03-1.14-.72-1.68-1.65-1.3-1.7.69-3.38,1.43-4.99,2.3-.4.22-.49,1.01-.72,1.54.55.16,1.2.59,1.63.44,1.68-.6,3.3-1.36,4.91-2.13.39-.19.64-.66.82-.85ZM145.06,26.03c-.06-.23-.12-.47-.18-.7-1.13.3-2.26.59-3.39.89.06.23.12.45.18.68,1.13-.29,2.26-.58,3.39-.87Z"/>
        <path class="cls-5" d="M128.55,31.59c.32.72.57,1.23.79,1.76,5.61,13.66,11.22,27.32,16.83,40.98.13.32.26.65.4.97,1.35,3.11,3.84,4.09,6.95,2.65,6.37-2.95,12.71-5.95,19.06-8.92.49-.23.99-.44,1.64-.72-.07,1.39-.6,2.32-1.71,2.83-6.68,3.11-13.34,6.25-20.06,9.26-2.91,1.3-5.82-.09-7.13-3.24-2.47-5.92-4.89-11.86-7.33-17.79-3.27-7.95-6.53-15.92-9.84-23.86-.54-1.29-.69-2.47.4-3.92Z"/>
        <path class="cls-1" d="M165.83,66.77c-.18.19-.43.67-.82.85-1.61.77-3.23,1.53-4.91,2.13-.44.16-1.08-.28-1.63-.44.23-.53.32-1.32.72-1.54,1.61-.87,3.29-1.61,4.99-2.3.93-.38,1.68.16,1.65,1.3Z"/>
        <path class="cls-1" d="M145.06,26.03c-1.13.29-2.26.58-3.39.87-.06-.23-.12-.45-.18-.68,1.13-.3,2.26-.59,3.39-.89.06.23.12.47.18.7Z"/>
      </g>
    </g>
    <path class="cls-1" d="M156.41,66.67l9.88-4.3c.46-.2.85-.55,1.1-.99,1.33-2.33,4.84-8.67,12.03-11.73.22-.09.46-.16.7-.18.7-.04,1.15.3.9,1.45-.2.88-.31,1.46-.37,1.76-.03.15-.07.3-.13.45-.21.5-.57,1.71,1.53.24,2.43-1.71,11.27-6.54,12.27-7.09.09-.05.17-.1.26-.16.39-.29,1.25-1.06-.16-1.49-1.66-.5-12.2-3.59-13.3-3.91-.06-.02-.11-.03-.16-.05-.33-.12-1.64-.52-1.37.88l.29,1.48c.02.08.04.16.06.24l.26.84c.16.53-.19,1.09-.73,1.14-1.14.11-4.51.07-8.83,2.13-2.28,1.09-5.12,3.06-5.82,3.58-3.5,2.64-7.44,6.33-11.31,12.28-1.27,1.95.77,4.36,2.91,3.43Z"/>
    <g>
      <path class="cls-6" d="M173.52,50.45c-.03.06-.06.12-.1.19-.75-.49-1.5-.99-2.25-1.48-1.96-1.29-3.91-2.59-5.87-3.88-.63-.42-1.26-.84-1.89-1.26-.34-.89-.68-1.78-1.02-2.67.12.07.24.13.36.21,3.06,1.94,6.13,3.88,9.19,5.82.3.34.43.77.64,1.15.29.51.51,1.06.82,1.55l.11.37Z"/>
      <path class="cls-1" d="M150.76,41.12c-.32-.39-.67-.77-.97-1.17-1.2-1.65-1.73-3.45-1.16-5.47.48-1.68,1.52-2.9,3.08-3.68,2.62-1.32,5.78-.36,7.34,1.88.68.97,1.01,2.05,1.09,3.21.06.79-.01,1.58-.17,2.37-.12.66-.31,1.31-.54,1.94-.19.54-.42,1.07-.62,1.6-.37.68-.72,1.38-1.12,2.04-.22.37-.39.81-.79,1.05-.15-.02-.29-.04-.43-.1-.58-.24-1.14-.54-1.7-.82-1.02-.54-2-1.16-2.9-1.89-.39-.31-.76-.64-1.14-.96ZM156.34,35.42c-.35-1.14-1.55-1.78-2.69-1.43-1.14.35-1.79,1.54-1.44,2.69.34,1.15,1.56,1.8,2.71,1.44,1.14-.36,1.78-1.56,1.43-2.7Z"/>
      <path class="cls-2" d="M163.41,44.02c.63.42,1.26.84,1.89,1.26,1.96,1.29,3.91,2.59,5.87,3.88.75.5,1.5.99,2.25,1.48-.16.2-.38.2-.61.17-2.25-.29-4.5-.57-6.75-.87-.28-.04-.48.02-.7.21-1.06.94-2.14,1.86-3.21,2.79-1.12-.62-2.25-1.25-3.37-1.87-1.79-1.55-3.59-3.1-5.42-4.68.69-.12,1.31-.23,1.94-.35.62-.12,1.25-.18,1.85-.35.14-.05.23-.16.33-.25.94-.79,1.88-1.59,2.81-2.39.13-.11.23-.13.4-.07.9.35,1.81.69,2.72,1.04Z"/>
      <path class="cls-12" d="M159.93,54.84c-.76-.02-1.51-.16-2.26-.26-1.67-.2-3.33-.42-4.99-.64-.22-.03-.36.03-.52.17-1.74,1.52-3.48,3.03-5.22,4.54-.16.14-.33.29-.57.17-.22-.11-.25-.32-.27-.54-.16-1.39-.32-2.78-.48-4.17-.07-.59-.13-1.19-.19-1.78.49-.48.98-.96,1.47-1.44,1.32-1.3,2.64-2.6,3.96-3.9.04.03.09.06.13.1,1.8,1.5,3.6,3,5.4,4.49,1.13.94,2.27,1.87,3.4,2.81.05.15.1.31.15.46Z"/>
      <path class="cls-2" d="M150.76,41.12c.38.32.75.65,1.14.96.9.73,1.88,1.34,2.9,1.89-.03.01-.07.03-.1.04-1.45.23-2.91.45-4.36.68-1.02,1-2.04,2.01-3.06,3.01-.71.7-1.43,1.4-2.14,2.09-.14-1.21-.28-2.43-.42-3.64-.03-.22.03-.39.19-.55,1.45-1.49,2.89-2.98,4.33-4.47.17-.17.35-.22.58-.18.32.07.64.12.96.17Z"/>
      <path class="cls-12" d="M171.94,47.38c-3.06-1.94-6.12-3.88-9.19-5.82-.12-.07-.24-.14-.36-.21,0-.01,0-.02-.01-.03.03-.02.05-.06.08-.07.99-.56,1.99-1.11,2.97-1.67.49-.28,1-.51,1.45-.85.15.03.31.06.46.09.2.04.33.14.42.32.61,1.19,1.22,2.38,1.83,3.57.74,1.44,1.47,2.87,2.21,4.31.06.12.11.23.13.36Z"/>
      <path class="cls-10" d="M145.13,49.79c.71-.7,1.43-1.4,2.14-2.09,1.02-1,2.04-2.01,3.06-3.01.05.17.1.34.14.51.13.6.26,1.2.38,1.8-1.32,1.3-2.64,2.6-3.96,3.9-.49.48-.98.96-1.47,1.44-.12-.57-.14-1.16-.22-1.74-.04-.26-.05-.53-.08-.79Z"/>
      <path class="cls-6" d="M166.88,38.72c-.45.34-.96.57-1.45.85-.99.57-1.98,1.12-2.97,1.67-.03.02-.06.05-.08.07-.13-.33-.23-.68-.39-1-.14-.29-.17-.62-.37-.88.06-.1.17-.13.26-.19.67-.39,1.34-.79,2.02-1.18.99.22,1.99.43,2.98.65Z"/>
      <path class="cls-2" d="M163.9,38.07c-.67.39-1.34.78-2.02,1.18-.09.05-.2.09-.26.19-.1.08-.21.15-.31.23-.83.71-1.66,1.42-2.49,2.12.21-.53.43-1.06.62-1.6.23-.63.41-1.28.54-1.94.27-.12.43-.37.64-.56.19-.18.39-.24.65-.18.87.2,1.75.38,2.62.57Z"/>
      <path class="cls-10" d="M159.93,54.84c-.05-.15-.1-.31-.15-.46-.33-1.11-.66-2.21-.99-3.32,1.12.62,2.25,1.25,3.37,1.87-.73.65-1.45,1.32-2.23,1.91Z"/>
      <path class="cls-10" d="M158.82,41.79c.83-.71,1.66-1.42,2.49-2.12.1-.08.21-.15.31-.23.2.26.23.59.37.88.16.32.26.67.39,1,0,0,.01.02.01.03.34.89.68,1.78,1.02,2.67-.91-.34-1.82-.68-2.72-1.04-.16-.06-.27-.04-.4.07-.93.8-1.87,1.59-2.81,2.39-.1.09-.19.2-.33.25-.08-.27-.16-.53-.24-.8.4-.24.57-.68.79-1.05.4-.67.75-1.36,1.12-2.04Z"/>
      <path class="cls-6" d="M156.92,44.88c.08.27.16.53.24.8-.61.18-1.24.23-1.85.35-.62.12-1.25.23-1.94.35,1.84,1.59,3.63,3.13,5.42,4.68.33,1.11.66,2.21.99,3.32-1.13-.94-2.27-1.87-3.4-2.81-1.8-1.5-3.6-3-5.4-4.49-.04-.04-.09-.07-.13-.1-.13-.6-.25-1.2-.38-1.8-.04-.17-.09-.34-.14-.51,1.45-.23,2.91-.45,4.36-.68.03,0,.07-.03.1-.04.56.28,1.12.57,1.7.82.14.06.28.08.43.1Z"/>
    </g>
    <text class="cls-7" transform="translate(29.81 163.98)"><tspan class="cls-11" x="0" y="0">E</tspan><tspan class="cls-9" x="33.13" y="0">XP</tspan><tspan class="cls-8" x="102.95" y="0">L</tspan><tspan class="cls-9" x="131.93" y="0">ORE</tspan><tspan class="cls-11" x="240.23" y="0">E</tspan></text>
    <circle class="cls-4" cx="155.68" cy="50.25" r="44.51"/>
    <circle class="cls-3" cx="155.8" cy="50.54" r="49.54"/>
  </g>
</svg>